<svg width="200" height="200" viewBox="0 0 200 200" fill="none" xmlns="http://www.w3.org/2000/svg">
<path d="M165.094 135.384C165.094 140.907 160.616 145.384 155.094 145.384H44.9065C39.3836 145.384 34.9065 140.907 34.9065 135.384V64.6162C34.9065 59.0934 39.3836 54.6162 44.9065 54.6162H155.094C160.616 54.6162 165.094 59.0934 165.094 64.6162V135.384Z" fill="#143264"/>
<path fill-rule="evenodd" clip-rule="evenodd" d="M91.8937 124.753C90.0523 127.713 86.1489 128.603 83.2069 126.731C80.3072 124.887 79.4329 121.052 81.2469 118.133L107.91 75.2308C109.739 72.2876 113.608 71.3835 116.552 73.2112C119.499 75.0406 120.403 78.9135 118.571 81.8589L91.8937 124.753ZM146.466 81.8589C148.298 78.9135 147.394 75.0406 144.447 73.2112C141.503 71.3835 137.635 72.2876 135.805 75.2308L109.142 118.133C107.328 121.052 108.202 124.887 111.102 126.731C114.044 128.603 117.947 127.713 119.789 124.753L146.466 81.8589ZM59.4774 85.8762C54.7511 85.8762 50.9197 89.7076 50.9197 94.4339C50.9197 99.1602 54.7511 102.992 59.4774 102.992C64.2038 102.992 68.0352 99.1602 68.0352 94.4339C68.0352 92.1643 67.1336 89.9876 65.5287 88.3827C63.9238 86.7778 61.7471 85.8761 59.4774 85.8762ZM51.5713 118.25C52.8959 115.052 56.0164 112.967 59.4777 112.967C61.7474 112.967 63.9241 113.869 65.529 115.473C67.1339 117.078 68.0355 119.255 68.0355 121.525C68.0355 124.986 65.9504 128.106 62.7526 129.431C59.5548 130.756 55.874 130.023 53.4264 127.576C50.9789 125.128 50.2468 121.448 51.5713 118.25Z" fill="#50D673"/>
</svg>
